<svg width="152" height="29" viewBox="0 0 152 29" fill="none" xmlns="http://www.w3.org/2000/svg">
<path d="M0 17.8466L8.08307 25.9296H0V17.8466Z" fill="#8C01FA"/>
<path d="M0.421753 4L22.2109 25.8594L14.409 26L0.421753 11.8722V4Z" fill="#8C01FA"/>
<path d="M21.2129 17.411C21.8946 16.1377 22.2812 14.6827 22.2812 13.1374C22.2812 8.12982 18.2217 4.07034 13.2141 4.07034H7.87222L21.2129 17.411Z" fill="white"/>
<path d="M49.1533 23H44.9773L41.7373 18.32H41.5453H38.1613V23H34.2733V6.2H41.5453C46.0333 6.2 48.8413 8.528 48.8413 12.296C48.8413 14.816 47.5693 16.664 45.3853 17.6L49.1533 23ZM44.9053 12.296C44.9053 10.448 43.7053 9.368 41.3293 9.368H38.1613V15.224H41.3293C43.7053 15.224 44.9053 14.12 44.9053 12.296ZM60.9217 10.088H64.6657V23H61.1137V21.464C60.1297 22.592 58.6897 23.192 57.1057 23.192C53.8657 23.192 51.5857 21.368 51.5857 17.384V10.088H55.3297V16.832C55.3297 18.992 56.2897 19.952 57.9457 19.952C59.6737 19.952 60.9217 18.848 60.9217 16.472V10.088ZM72.4783 23.192C70.2943 23.192 68.0863 22.592 66.8863 21.8L68.1343 19.112C69.2863 19.856 71.0383 20.36 72.6223 20.36C74.3503 20.36 74.9983 19.904 74.9983 19.184C74.9983 17.072 67.1982 19.232 67.1982 14.072C67.1982 11.624 69.4062 9.896 73.1743 9.896C74.9503 9.896 76.9183 10.304 78.1423 11.024L76.8943 13.688C75.6223 12.968 74.3503 12.728 73.1743 12.728C71.4943 12.728 70.7743 13.256 70.7743 13.928C70.7743 16.136 78.5743 14 78.5743 19.088C78.5743 21.488 76.3423 23.192 72.4783 23.192ZM88.2043 19.736L89.2123 22.376C88.4443 22.928 87.3163 23.192 86.1643 23.192C83.1163 23.192 81.3403 21.632 81.3403 18.56V13.256H79.3483V10.376H81.3403V7.232H85.0843V10.376H88.3003V13.256H85.0843V18.512C85.0843 19.616 85.6843 20.216 86.6923 20.216C87.2443 20.216 87.7963 20.048 88.2043 19.736ZM97.0979 23.288C94.4339 23.288 91.7459 22.496 90.2579 21.344L91.5779 18.416C92.9939 19.448 95.1059 20.168 97.1219 20.168C99.4259 20.168 100.362 19.4 100.362 18.368C100.362 15.224 90.5939 17.384 90.5939 11.144C90.5939 8.288 92.8979 5.912 97.6739 5.912C99.7859 5.912 101.946 6.416 103.506 7.4L102.306 10.352C100.746 9.464 99.1379 9.032 97.6499 9.032C95.3459 9.032 94.4579 9.896 94.4579 10.952C94.4579 14.048 104.226 11.912 104.226 18.08C104.226 20.888 101.898 23.288 97.0979 23.288ZM112.859 23.192C108.659 23.192 105.659 20.432 105.659 16.544C105.659 12.656 108.659 9.896 112.859 9.896C115.571 9.896 117.707 11.072 118.643 13.184L115.739 14.744C115.043 13.52 114.011 12.968 112.835 12.968C110.939 12.968 109.451 14.288 109.451 16.544C109.451 18.8 110.939 20.12 112.835 20.12C114.011 20.12 115.043 19.592 115.739 18.344L118.643 19.928C117.707 21.992 115.571 23.192 112.859 23.192ZM126.006 9.896C129.942 9.896 132.222 11.72 132.222 15.632V23H128.718V21.392C128.022 22.568 126.678 23.192 124.782 23.192C121.758 23.192 119.958 21.512 119.958 19.28C119.958 17 121.566 15.416 125.502 15.416H128.478C128.478 13.808 127.518 12.872 125.502 12.872C124.134 12.872 122.718 13.328 121.782 14.072L120.438 11.456C121.854 10.448 123.942 9.896 126.006 9.896ZM125.718 20.672C126.966 20.672 128.046 20.096 128.478 18.92V17.6H125.91C124.158 17.6 123.606 18.248 123.606 19.112C123.606 20.048 124.398 20.672 125.718 20.672ZM143.459 9.896C146.507 9.896 148.811 11.672 148.811 15.608V23H145.067V16.184C145.067 14.096 144.107 13.136 142.451 13.136C140.651 13.136 139.355 14.24 139.355 16.616V23H135.611V10.088H139.187V11.6C140.195 10.496 141.707 9.896 143.459 9.896Z" fill="white"/>
</svg>
