<svg width="185" height="29" viewBox="0 0 185 29" fill="none" xmlns="http://www.w3.org/2000/svg">
<path d="M3.5 2.05556V9.83333H6.61111V3.61111H12.8333V0.5H5.05555C4.64299 0.5 4.24733 0.663888 3.95561 0.955612C3.66389 1.24733 3.5 1.643 3.5 2.05556ZM31.5 9.83333V2.05556C31.5 1.643 31.3361 1.24733 31.0444 0.955612C30.7527 0.663888 30.357 0.5 29.9444 0.5H22.1667V3.61111H28.3889V9.83333H31.5ZM28.3889 25.3889H22.1667V28.5H29.9444C30.357 28.5 30.7527 28.3361 31.0444 28.0444C31.3361 27.7527 31.5 27.357 31.5 26.9444V19.1667H28.3889V25.3889ZM12.8333 28.5V25.3889H6.61111V19.1667H3.5V26.9444C3.5 27.357 3.66389 27.7527 3.95561 28.0444C4.24733 28.3361 4.64299 28.5 5.05555 28.5H12.8333ZM1.94444 12.9444H33.0556V16.0556H1.94444V12.9444Z" fill="url(#paint0_linear_7177_4537)"/>
<path d="M52.0716 22.408C49.7516 22.408 47.9036 21.912 46.5276 20.92C45.1676 19.912 44.4636 18.472 44.4156 16.6H48.6876C48.8636 18.232 49.9836 19.048 52.0476 19.048C52.8156 19.048 53.4636 18.904 53.9916 18.616C54.5356 18.312 54.8076 17.856 54.8076 17.248C54.8076 16.832 54.6396 16.488 54.3036 16.216C53.9676 15.928 53.6236 15.728 53.2716 15.616C52.9356 15.504 52.2876 15.328 51.3276 15.088C51.2796 15.072 51.2476 15.064 51.2316 15.064C51.2156 15.048 51.1916 15.04 51.1596 15.04C51.1276 15.024 51.0956 15.016 51.0636 15.016C50.3276 14.84 49.7196 14.688 49.2396 14.56C48.7756 14.416 48.2396 14.208 47.6316 13.936C47.0396 13.648 46.5676 13.336 46.2156 13C45.8636 12.664 45.5596 12.224 45.3036 11.68C45.0636 11.12 44.9436 10.496 44.9436 9.808C44.9436 8.048 45.5676 6.728 46.8156 5.848C48.0796 4.968 49.7276 4.528 51.7596 4.528C53.7116 4.528 55.3036 4.976 56.5356 5.872C57.7836 6.768 58.4476 8.08 58.5276 9.808H54.3756C54.2956 9.152 54.0156 8.648 53.5356 8.296C53.0556 7.928 52.4156 7.744 51.6156 7.744C50.8796 7.744 50.2796 7.896 49.8156 8.2C49.3676 8.488 49.1436 8.872 49.1436 9.352C49.1436 9.896 49.4156 10.296 49.9596 10.552C50.5036 10.792 51.5276 11.08 53.0316 11.416C53.9756 11.64 54.7516 11.864 55.3596 12.088C55.9676 12.296 56.5836 12.6 57.2076 13C57.8476 13.4 58.3196 13.92 58.6236 14.56C58.9436 15.184 59.1036 15.936 59.1036 16.816C59.1036 18.56 58.4396 19.928 57.1116 20.92C55.7996 21.912 54.1196 22.408 52.0716 22.408ZM64.7981 18.592C65.2461 19.264 65.8861 19.6 66.7181 19.6C67.5501 19.6 68.1901 19.264 68.6381 18.592C69.1021 17.92 69.3341 17.016 69.3341 15.88C69.3341 14.744 69.1021 13.84 68.6381 13.168C68.1901 12.48 67.5501 12.136 66.7181 12.136C65.8861 12.136 65.2461 12.472 64.7981 13.144C64.3501 13.816 64.1261 14.728 64.1261 15.88C64.1261 17.016 64.3501 17.92 64.7981 18.592ZM71.4701 20.536C70.2701 21.768 68.6941 22.384 66.7421 22.384C64.7901 22.384 63.2061 21.768 61.9901 20.536C60.7741 19.304 60.1661 17.752 60.1661 15.88C60.1661 14.008 60.7741 12.456 61.9901 11.224C63.2061 9.992 64.7901 9.376 66.7421 9.376C68.6941 9.376 70.2701 9.992 71.4701 11.224C72.6861 12.456 73.2941 14.008 73.2941 15.88C73.2941 17.752 72.6861 19.304 71.4701 20.536ZM74.6406 22V4.84H78.6006V22H74.6406ZM80.4994 22V9.712H84.4114V22H80.4994ZM80.4994 8.008V4.84H84.4114V8.008H80.4994ZM91.1124 22.384C89.5124 22.384 88.2164 21.8 87.2244 20.632C86.2324 19.464 85.7364 17.872 85.7364 15.856C85.7364 13.936 86.2324 12.376 87.2244 11.176C88.2324 9.96 89.5284 9.352 91.1124 9.352C92.5844 9.352 93.7284 9.936 94.5444 11.104H94.6164V4.84H98.5284V22H94.7844V20.344H94.7364C93.9364 21.704 92.7284 22.384 91.1124 22.384ZM92.1204 19.288C92.9204 19.288 93.5524 18.976 94.0164 18.352C94.4804 17.712 94.7124 16.88 94.7124 15.856C94.7124 14.784 94.4964 13.928 94.0644 13.288C93.6324 12.632 93.0004 12.304 92.1684 12.304C91.4004 12.304 90.7924 12.624 90.3444 13.264C89.9124 13.904 89.6964 14.752 89.6964 15.808C89.6964 16.88 89.9124 17.728 90.3444 18.352C90.7764 18.976 91.3684 19.288 92.1204 19.288ZM100.398 22V9.712H104.31V22H100.398ZM100.398 8.008V4.84H104.31V8.008H100.398ZM111.059 22.144C109.811 22.144 108.843 21.896 108.155 21.4C107.483 20.888 107.147 20.008 107.147 18.76V12.16H105.515V9.712H107.147V5.824H110.963V9.712H113.195V12.16H110.963V17.92C110.963 18.368 111.075 18.68 111.299 18.856C111.539 19.032 111.883 19.12 112.331 19.12C112.459 19.12 112.627 19.12 112.835 19.12C113.043 19.104 113.163 19.096 113.195 19.096V21.952C112.747 22.08 112.035 22.144 111.059 22.144ZM115.36 26.056V23.008H116.704C117.776 23.008 118.312 22.576 118.312 21.712C118.312 21.296 118.064 20.448 117.568 19.168L113.944 9.712H118.072L119.728 14.944L120.496 17.776H120.544C120.768 16.688 121.008 15.744 121.264 14.944L122.872 9.712H126.784L122.536 22.168C122.04 23.608 121.448 24.616 120.76 25.192C120.088 25.768 119.136 26.056 117.904 26.056H115.36ZM134.736 22.408C132.416 22.408 130.568 21.912 129.192 20.92C127.832 19.912 127.128 18.472 127.08 16.6H131.352C131.528 18.232 132.648 19.048 134.712 19.048C135.48 19.048 136.128 18.904 136.656 18.616C137.2 18.312 137.472 17.856 137.472 17.248C137.472 16.832 137.304 16.488 136.968 16.216C136.632 15.928 136.288 15.728 135.936 15.616C135.6 15.504 134.952 15.328 133.992 15.088C133.944 15.072 133.912 15.064 133.896 15.064C133.88 15.048 133.856 15.04 133.824 15.04C133.792 15.024 133.76 15.016 133.728 15.016C132.992 14.84 132.384 14.688 131.904 14.56C131.44 14.416 130.904 14.208 130.296 13.936C129.704 13.648 129.232 13.336 128.88 13C128.528 12.664 128.224 12.224 127.968 11.68C127.728 11.12 127.608 10.496 127.608 9.808C127.608 8.048 128.232 6.728 129.48 5.848C130.744 4.968 132.392 4.528 134.424 4.528C136.376 4.528 137.968 4.976 139.2 5.872C140.448 6.768 141.112 8.08 141.192 9.808H137.04C136.96 9.152 136.68 8.648 136.2 8.296C135.72 7.928 135.08 7.744 134.28 7.744C133.544 7.744 132.944 7.896 132.48 8.2C132.032 8.488 131.808 8.872 131.808 9.352C131.808 9.896 132.08 10.296 132.624 10.552C133.168 10.792 134.192 11.08 135.696 11.416C136.64 11.64 137.416 11.864 138.024 12.088C138.632 12.296 139.248 12.6 139.872 13C140.512 13.4 140.984 13.92 141.288 14.56C141.608 15.184 141.768 15.936 141.768 16.816C141.768 18.56 141.104 19.928 139.776 20.92C138.464 21.912 136.784 22.408 134.736 22.408ZM149.358 22.384C147.406 22.384 145.83 21.768 144.63 20.536C143.43 19.304 142.83 17.752 142.83 15.88C142.83 14.008 143.422 12.456 144.606 11.224C145.79 9.992 147.342 9.376 149.262 9.376C150.894 9.376 152.23 9.808 153.27 10.672C154.31 11.536 154.918 12.672 155.094 14.08H151.326C151.054 12.864 150.382 12.256 149.31 12.256C148.478 12.256 147.846 12.576 147.414 13.216C146.998 13.856 146.79 14.744 146.79 15.88C146.79 17 147.006 17.88 147.438 18.52C147.87 19.144 148.494 19.456 149.31 19.456C150.558 19.456 151.27 18.752 151.446 17.344H155.19C155.142 18.8 154.582 20.008 153.51 20.968C152.454 21.912 151.07 22.384 149.358 22.384ZM160.295 22.312C159.031 22.312 158.015 21.984 157.247 21.328C156.479 20.672 156.095 19.752 156.095 18.568C156.095 17.32 156.511 16.416 157.343 15.856C158.175 15.28 159.327 14.896 160.799 14.704C161.999 14.56 162.815 14.4 163.247 14.224C163.695 14.032 163.919 13.736 163.919 13.336C163.919 12.456 163.359 12.016 162.239 12.016C161.039 12.016 160.375 12.544 160.247 13.6H156.647C156.695 12.384 157.191 11.376 158.135 10.576C159.095 9.776 160.455 9.376 162.215 9.376C163.975 9.376 165.303 9.712 166.199 10.384C167.239 11.136 167.759 12.304 167.759 13.888V20.08C167.759 21.056 167.903 21.64 168.191 21.832V22H164.399C164.239 21.776 164.103 21.32 163.991 20.632H163.943C163.159 21.752 161.943 22.312 160.295 22.312ZM161.543 19.816C162.279 19.816 162.871 19.616 163.319 19.216C163.783 18.8 164.015 18.264 164.015 17.608V16.144C163.631 16.336 162.959 16.552 161.999 16.792C161.215 16.968 160.663 17.176 160.343 17.416C160.023 17.656 159.863 18 159.863 18.448C159.863 19.36 160.423 19.816 161.543 19.816ZM169.656 22V9.712H173.424V11.392H173.496C174.44 10.032 175.704 9.352 177.288 9.352C178.616 9.352 179.656 9.784 180.408 10.648C181.176 11.496 181.56 12.616 181.56 14.008V22H177.648V14.8C177.648 14.128 177.48 13.6 177.144 13.216C176.824 12.816 176.352 12.616 175.728 12.616C175.088 12.616 174.568 12.856 174.168 13.336C173.768 13.816 173.568 14.44 173.568 15.208V22H169.656Z" fill="white"/>
<defs>
<linearGradient id="paint0_linear_7177_4537" x1="4.94444" y1="2.5" x2="31.4444" y2="26.5" gradientUnits="userSpaceOnUse">
<stop stop-color="#52FF00"/>
<stop offset="1" stop-color="#00EEFD"/>
</linearGradient>
</defs>
</svg>
